<svg version="1.1" xmlns="http://www.w3.org/2000/svg" viewBox="-10.635180155917267 -27.200243407817542 21.270360311834537 54.400486815635084" fill="none" stroke="black" stroke-width="0.6%" vector-effect="non-scaling-stroke">
    <path d="M -9.63518 -24.32343 L -9.63518 1.87681 L -9.43445 2.38355 L -9.43445 -6.88457 L -0.20073 16.42539 L -0.20073 25.6935 L 0 26.20024 L 0 0 L 9.63518 -1.87681 L 0 -26.20024 L -9.63518 -24.32343 L 0 0" />
    <path d="M -9.43445 -23.282 L -0.20073 0.02796 L -0.20073 10.18724" />
    <path d="M -9.43445 -13.12272 L -9.43445 -23.282" />
    <path d="M -9.43445 -13.12272 L -0.20073 10.18724" />
    <path d="M -9.43445 -7.41927 L -9.43445 -12.58802 L -0.20073 10.72194 L -0.20073 15.89069" />
    <path d="M -9.43445 -7.41927 L -0.20073 15.89069" />
    <path d="M 9.63518 24.32343 L 9.63518 -1.87681" />
    <path d="M 0 26.20024 L 9.63518 24.32343" />
    <path d="M -9.43445 2.38355 L -6.02608 1.71964" />
    <path d="M -5.69836 -13.85046 L -9.43445 -13.12272" />
    <path d="M -7.53363 -7.78952 L -9.43445 -7.41927" />
</svg>