<svg version="1.1" xmlns="http://www.w3.org/2000/svg" viewBox="-10.649152454577962 -27.445960075542192 21.29830490915592 54.89192015108438" fill="none" stroke="black" stroke-width="0.6%" vector-effect="non-scaling-stroke">
    <path d="M -9.64915 -24.62281 L -9.64915 1.82315 L -9.45223 2.32566 L -6.03892 1.68073" />
    <path d="M -9.64915 -24.62281 L -0.19692 -0.50251 L 9.45223 -2.32566 L 0 -26.44596 L -9.64915 -24.62281 Z" />
    <path d="M -0.19692 0.03721 L -0.19692 -0.50251" />
    <path d="M -9.45223 -23.58059 L -0.19692 0.03721 L 0 0.53971 L 0 26.44596 L 9.64915 24.62281 L 9.64915 -1.28344 L 0 0.53971" />
    <path d="M -9.45223 -13.32603 L -9.45223 -23.58059" />
    <path d="M -9.45223 -13.32603 L -0.39384 9.78926 L -0.19692 9.75205" />
    <path d="M -0.39384 10.32897 L -0.39384 9.78926" />
    <path d="M -9.45223 -12.78632 L -0.39384 10.32897 L -0.19692 10.29176" />
    <path d="M -9.45223 -7.56909 L -9.45223 -12.78632" />
    <path d="M -9.45223 -7.56909 L -0.39384 15.5462 L -0.19692 15.50899" />
    <path d="M -0.39384 16.08591 L -0.39384 15.5462" />
    <path d="M -9.45223 -7.02937 L -0.39384 16.08591 L -0.19692 16.04871" />
    <path d="M -9.45223 2.32566 L -9.45223 -7.02937" />
    <path d="M 9.45223 -1.78594 L 9.45223 -2.32566" />
    <path d="M 9.45223 -1.78594 L -0.19692 0.03721 L -0.19692 25.94345 L 0 26.44596" />
    <path d="M -5.71072 -14.03297 L -9.45223 -13.32603" />
    <path d="M -7.54866 -7.92876 L -9.45223 -7.56909" />
    <path d="M 9.45223 -1.78594 L 9.64915 -1.28344" />
</svg>